<svg width="32" height="32" viewBox="0 0 32 32" fill="none" xmlns="http://www.w3.org/2000/svg">
  <rect width="32" height="32" rx="8" fill="#2563eb"/>
  <path d="M16 6C16.5523 6 17 6.44772 17 7V11H21C21.5523 11 22 11.4477 22 12V13C22 13.5523 21.5523 14 21 14H17V18H21C21.5523 18 22 18.4477 22 19V20C22 20.5523 21.5523 21 21 21H17V25C17 25.5523 16.5523 26 16 26C15.4477 26 15 25.5523 15 25V21H11C10.4477 21 10 20.5523 10 20V19C10 18.4477 10.4477 18 11 18H15V14H11C10.4477 14 10 13.5523 10 13V12C10 11.4477 10.4477 11 11 11H15V7C15 6.44772 15.4477 6 16 6Z" fill="white"/>
</svg>
